<svg width="12" height="12" viewBox="0 0 12 12" fill="none" xmlns="http://www.w3.org/2000/svg">
<path fill-rule="evenodd" clip-rule="evenodd" d="M5.27568 0.0295704C4.19929 0.167452 3.06463 0.660427 2.20545 1.36342C1.68577 1.78862 1.11284 2.46178 0.779875 3.03836C-0.0548202 4.48384 -0.229411 6.26301 0.304067 7.8874C0.939771 9.82302 2.56801 11.3343 4.54292 11.8216C5.93513 12.1652 7.40153 12.009 8.66093 11.383C11.0477 10.1967 12.3526 7.64529 11.9168 5.01706C11.6378 3.33397 10.7364 1.93638 9.31751 0.986917C8.58693 0.498032 7.67055 0.15727 6.7738 0.0410356C6.39239 -0.00840823 5.61823 -0.01432 5.27568 0.0295704ZM7.07546 3.91963C7.17258 3.97119 8.91278 5.71522 8.95979 5.8081C9.01071 5.90869 8.99915 6.12041 8.93727 6.22061C8.90684 6.26988 8.48691 6.71165 8.00408 7.20232L7.12623 8.09446L6.97691 8.10817C6.85485 8.11936 6.80862 8.109 6.72377 8.05132C6.51427 7.90896 6.42435 7.65872 6.51851 7.48012C6.53744 7.44426 6.74838 7.21337 6.98733 6.96705L7.42174 6.51919L5.3903 6.50426L3.35883 6.48933L3.23877 6.40988C2.94451 6.21515 2.94451 5.77822 3.23877 5.58349L3.35883 5.50404L5.38988 5.49577L7.42091 5.4875L6.94008 5.00312C6.54497 4.60506 6.45567 4.49934 6.4391 4.40982C6.40353 4.21802 6.55378 3.97316 6.75292 3.89837C6.83768 3.86651 6.99495 3.8769 7.07546 3.91963Z" fill="white"/>
</svg>
